<svg width="182" height="47" viewBox="0 0 182 47" fill="none" xmlns="http://www.w3.org/2000/svg">
<path d="M54.1157 14.7903H58.5189V32.6063H54.1157V14.7903ZM60.2656 25.8794C60.2656 21.4731 62.9662 18.8441 67.1346 18.8441C71.303 18.8441 74.0036 21.4731 74.0036 25.8794C74.0036 30.2856 71.3617 32.9294 67.1346 32.9294C62.9075 32.9294 60.2656 30.3591 60.2656 25.8794ZM69.5857 25.8794C69.5857 23.4559 68.6317 22.0313 67.1346 22.0313C65.6375 22.0313 64.6981 23.5 64.6981 25.8794C64.6981 28.2588 65.6228 29.6981 67.1346 29.6981C68.6464 29.6981 69.5857 28.3469 69.5857 25.8941V25.8794ZM75.6622 33.4728H79.8893C80.0905 33.9201 80.4306 34.2903 80.859 34.5286C81.2874 34.7666 81.7813 34.8601 82.267 34.7947C83.9402 34.7947 84.8209 33.8841 84.8209 32.5622V30.0947H84.7328C84.382 30.851 83.8127 31.4846 83.0985 31.914C82.3843 32.3434 81.5578 32.5487 80.7259 32.5034C77.5115 32.5034 75.3833 30.0506 75.3833 25.8353C75.3833 21.62 77.4088 18.9616 80.7846 18.9616C81.6426 18.9279 82.4904 19.1575 83.2144 19.6194C83.9385 20.0815 84.5041 20.7539 84.8356 21.5466V19.0938H89.2388V32.4594C89.2388 35.6759 86.406 37.6734 82.223 37.6734C78.3335 37.6734 75.9117 35.9256 75.6622 33.4875V33.4728ZM84.8356 25.8647C84.8356 23.7203 83.8522 22.3691 82.2964 22.3691C80.7406 22.3691 79.7865 23.7056 79.7865 25.8647C79.7865 28.0238 80.7259 29.2428 82.2964 29.2428C83.8669 29.2428 84.8356 28.0531 84.8356 25.8794V25.8647ZM90.8973 25.8647C90.8973 21.4584 93.598 18.8294 97.7664 18.8294C101.935 18.8294 104.65 21.4584 104.65 25.8647C104.65 30.2709 102.008 32.9147 97.7664 32.9147C93.5246 32.9147 90.8973 30.3591 90.8973 25.8794V25.8647ZM100.217 25.8647C100.217 23.4413 99.2635 22.0166 97.7664 22.0166C96.2693 22.0166 95.4033 23.5 95.4033 25.8941C95.4033 28.2881 96.328 29.7128 97.8251 29.7128C99.3222 29.7128 100.217 28.3469 100.217 25.8941V25.8647ZM106.323 15.8919C106.312 15.447 106.433 15.0087 106.67 14.6326C106.908 14.2564 107.252 13.9594 107.658 13.7791C108.065 13.5988 108.516 13.5434 108.954 13.6198C109.392 13.6963 109.798 13.9012 110.119 14.2085C110.441 14.5159 110.664 14.9119 110.76 15.3464C110.857 15.7808 110.822 16.2341 110.661 16.6489C110.499 17.0635 110.219 17.421 109.854 17.6758C109.49 17.9307 109.058 18.0715 108.613 18.0803C108.318 18.1006 108.023 18.0596 107.744 17.96C107.466 17.8604 107.212 17.7045 106.997 17.5016C106.782 17.2989 106.611 17.0538 106.495 16.7818C106.379 16.5099 106.321 16.2169 106.323 15.9213V15.8919ZM106.323 19.1231H110.727V32.6063H106.323V19.1231ZM126.71 25.8647C126.71 30.2709 124.758 32.7825 121.412 32.7825C120.554 32.8376 119.699 32.6277 118.964 32.1812C118.229 31.7346 117.649 31.0729 117.302 30.2856H117.214V36.9244H112.811V19.0938H117.214V21.5025H117.302C117.633 20.7022 118.202 20.0233 118.932 19.5582C119.662 19.093 120.518 18.8642 121.382 18.9028C124.758 18.9616 126.769 21.4878 126.769 25.8941L126.71 25.8647ZM122.307 25.8647C122.307 23.7203 121.324 22.3544 119.782 22.3544C118.241 22.3544 117.258 23.735 117.243 25.8647C117.229 27.9944 118.241 29.3603 119.782 29.3603C121.324 29.3603 122.307 28.0238 122.307 25.8941V25.8647ZM134.269 18.8147C137.924 18.8147 140.14 20.5478 140.243 23.3238H136.236C136.236 22.3691 135.443 21.7669 134.225 21.7669C133.007 21.7669 132.464 22.2369 132.464 22.9272C132.464 23.6175 132.948 23.8378 133.932 24.0434L136.75 24.6163C139.436 25.1891 140.58 26.2759 140.58 28.3175C140.58 31.1081 138.041 32.9 134.298 32.9C130.556 32.9 128.105 31.1081 127.914 28.3616H132.156C132.288 29.3603 133.08 29.9478 134.372 29.9478C135.663 29.9478 136.251 29.5219 136.251 28.8169C136.251 28.1119 135.84 27.965 134.783 27.7447L132.244 27.2013C129.616 26.6578 128.237 25.2625 128.237 23.2063C128.266 20.5625 130.629 18.8441 134.269 18.8441V18.8147ZM155.272 32.5769H151.031V30.0653H150.943C150.709 30.9085 150.196 31.6466 149.485 32.157C148.775 32.6672 147.912 32.9191 147.038 32.8706C146.369 32.9087 145.7 32.8026 145.076 32.5596C144.451 32.3165 143.886 31.9422 143.419 31.4618C142.951 30.9815 142.592 30.4062 142.366 29.7751C142.139 29.144 142.051 28.4716 142.107 27.8034V19.0938H146.51V26.79C146.51 28.3909 147.332 29.2428 148.697 29.2428C149.017 29.2434 149.334 29.1757 149.626 29.044C149.917 28.9122 150.178 28.7195 150.389 28.4789C150.599 28.2382 150.758 27.9552 150.85 27.6488C150.943 27.3423 150.971 27.0194 150.928 26.7019V19.0938H155.331L155.272 32.5769ZM157.401 19.0938H161.657V21.6934H161.745C161.979 20.8614 162.482 20.1303 163.175 19.6147C163.868 19.0992 164.713 18.8281 165.576 18.8441C166.455 18.7737 167.327 19.0368 168.021 19.5811C168.714 20.1254 169.178 20.9109 169.319 21.7816H169.407C169.673 20.9016 170.224 20.1355 170.974 19.6037C171.723 19.0719 172.629 18.8046 173.546 18.8441C174.145 18.8239 174.741 18.9301 175.295 19.1557C175.852 19.3812 176.352 19.7212 176.768 20.1533C177.183 20.5856 177.503 21.1004 177.707 21.6642C177.909 22.2281 177.993 22.8286 177.949 23.4266V32.6063H173.546V24.6016C173.546 23.1328 172.885 22.4572 171.652 22.4572C171.378 22.4548 171.105 22.5115 170.854 22.6235C170.603 22.7354 170.378 22.8999 170.196 23.1059C170.014 23.312 169.878 23.5546 169.797 23.8177C169.717 24.0809 169.695 24.3582 169.73 24.6309V32.6063H165.547V24.5428C165.547 23.1916 164.886 22.4572 163.683 22.4572C163.405 22.4573 163.129 22.5164 162.877 22.6305C162.623 22.7448 162.395 22.9115 162.212 23.1196C162.027 23.3277 161.889 23.5727 161.805 23.8384C161.723 24.104 161.697 24.3841 161.731 24.6603V32.6063H157.327L157.401 19.0938Z" fill="white"/>
<path d="M41.8013 15.5981C41.0544 13.889 40.0659 12.2963 38.8658 10.8687C37.0921 8.69549 34.8784 6.92279 32.3706 5.66731C29.8628 4.41185 27.1177 3.70208 24.3161 3.58471C21.5145 3.46735 18.7197 3.94504 16.1158 4.98639C13.512 6.02771 11.158 7.60907 9.20893 9.62637C7.2598 11.6437 5.75969 14.0512 4.80735 16.6904C3.855 19.3296 3.47199 22.1408 3.68355 24.9388C3.89513 27.7369 4.69644 30.4583 6.03479 32.9241C7.37313 35.39 9.21816 37.5442 11.4484 39.245C12.8795 40.3582 14.4607 41.2631 16.1452 41.9328C18.5068 42.9013 21.0344 43.4001 23.5866 43.4016C28.8549 43.39 33.9037 41.2885 37.6263 37.5578C41.3488 33.8272 43.4414 28.7719 43.4452 23.5C43.449 20.7806 42.8893 18.09 41.8013 15.5981ZM23.572 7.62279C25.864 7.62256 28.1283 8.12384 30.2062 9.09154C29.6995 9.31064 29.1667 9.46366 28.621 9.54687C26.8254 9.80697 25.162 10.6412 23.879 11.925C22.5961 13.2088 21.7624 14.8734 21.5024 16.6703C21.3884 17.678 20.9303 18.6155 20.2057 19.3246C19.4811 20.0337 18.5342 20.4708 17.5249 20.5625C15.7292 20.8226 14.0658 21.6569 12.7828 22.9407C11.4999 24.2245 10.6662 25.8891 10.4063 27.6859C10.3183 28.6441 9.90977 29.5446 9.24681 30.2416C8.10293 27.823 7.58907 25.154 7.75304 22.4832C7.91702 19.8124 8.7535 17.2265 10.1847 14.9661C11.6158 12.7058 13.5951 10.8445 15.9384 9.55545C18.2816 8.26637 20.9127 7.59143 23.5866 7.59342L23.572 7.62279ZM11.4337 33.7812C11.6099 33.6197 11.786 33.4728 11.9621 33.2966C13.2679 32.0298 14.1061 30.3574 14.3399 28.5525C14.4347 27.5379 14.8873 26.5902 15.6168 25.8794C16.3188 25.1482 17.2636 24.6989 18.2734 24.6162C20.069 24.3561 21.7324 23.5219 23.0154 22.238C24.2983 20.9542 25.132 19.2897 25.392 17.4928C25.4555 16.4316 25.9105 15.4319 26.6689 14.6875C27.3882 13.9705 28.342 13.5376 29.3549 13.4684C31.0045 13.2413 32.5429 12.5074 33.7581 11.3681C35.1417 12.5168 36.3139 13.8986 37.222 15.4512C37.1662 15.5266 37.1022 15.5956 37.0311 15.6569C36.3306 16.3945 35.387 16.8536 34.3745 16.9494C32.577 17.2049 30.9111 18.0377 29.6273 19.3223C28.3436 20.607 27.5114 22.274 27.256 24.0728C27.1525 25.0839 26.7029 26.0282 25.9835 26.7455C25.2638 27.463 24.3186 27.9093 23.3078 28.0091C21.5068 28.2671 19.8373 29.0998 18.5468 30.383C17.2566 31.6664 16.4142 33.332 16.1452 35.1325C16.0662 35.8503 15.8198 36.5396 15.426 37.1447C13.9201 36.2499 12.5714 35.1137 11.4337 33.7812ZM23.572 39.4506C22.0826 39.4522 20.6004 39.2446 19.1687 38.8337C19.6585 37.9202 19.9769 36.9245 20.1081 35.8962C20.211 34.8874 20.6585 33.9449 21.375 33.2278C22.0916 32.5108 23.0334 32.063 24.0416 31.96C25.8399 31.7028 27.5067 30.8699 28.7926 29.5858C30.0783 28.3018 30.9142 26.6355 31.1749 24.8366C31.2777 23.8277 31.7253 22.8852 32.4418 22.1681C33.1584 21.4511 34.1002 21.0033 35.1084 20.9003C36.4617 20.7242 37.7515 20.22 38.8658 19.4316C39.4846 21.7785 39.5579 24.236 39.0801 26.6157C38.6024 28.9953 37.5861 31.234 36.1096 33.1597C34.633 35.0852 32.7354 36.6469 30.5619 37.7247C28.3886 38.8025 25.9975 39.3678 23.572 39.3772V39.4506Z" fill="white"/>
</svg>
