<svg width="586" height="528" viewBox="0 0 586 528" fill="none" xmlns="http://www.w3.org/2000/svg">
<path d="M407.393 106.108C441.195 132.837 471.3 160.842 506.814 201.874C542.327 242.905 609.605 276.596 577.602 346.668C562.039 380.744 525.723 428.398 471.445 459.973C417.168 491.573 335.041 491.463 281.26 513.919C227.507 536.349 156.453 532.181 104.19 499.982C51.9268 467.782 18.4277 407.525 5.95522 346.668C-6.48967 285.786 2.06447 224.278 17.8482 160.816C33.632 97.3547 56.5902 31.9653 104.576 9.61309C152.562 -12.7652 225.548 7.91973 280.791 30.9754C336.062 54.0049 373.562 79.4052 407.393 106.108Z" fill="url(#paint0_linear_6_31)"/>
<defs>
<linearGradient id="paint0_linear_6_31" x1="37.9595" y1="3.87777e-07" x2="492.618" y2="582.381" gradientUnits="userSpaceOnUse">
<stop stop-color="#BE6AFF"/>
<stop offset="1" stop-color="#DA45DD"/>
</linearGradient>
</defs>
</svg>
