<svg width="309" height="323" viewBox="0 0 309 323" fill="none" xmlns="http://www.w3.org/2000/svg">
<g clip-path="url(#clip0_19_340)">
<path d="M119.532 323C185.547 323 239.063 313.556 239.063 301.905C239.063 290.255 185.547 280.811 119.532 280.811C53.5161 280.811 0 290.255 0 301.905C0 313.556 53.5161 323 119.532 323Z" fill="#3F3D56"/>
<path d="M192.181 233.396C256.698 233.396 309 181.149 309 116.698C309 52.2475 256.698 0 192.181 0C127.663 0 75.3611 52.2475 75.3611 116.698C75.3611 181.149 127.663 233.396 192.181 233.396Z" fill="#3F3D56"/>
<path opacity="0.05" d="M192.181 213.036C245.442 213.036 288.619 169.904 288.619 116.698C288.619 63.4921 245.442 20.3601 192.181 20.3601C138.919 20.3601 95.7424 63.4921 95.7424 116.698C95.7424 169.904 138.919 213.036 192.181 213.036Z" fill="black"/>
<path opacity="0.05" d="M192.181 195.655C235.833 195.655 271.22 160.305 271.22 116.698C271.22 73.0911 235.833 37.7406 192.181 37.7406C148.528 37.7406 113.141 73.0911 113.141 116.698C113.141 160.305 148.528 195.655 192.181 195.655Z" fill="black"/>
<path opacity="0.05" d="M192.181 173.309C223.479 173.309 248.85 147.963 248.85 116.698C248.85 85.4327 223.479 60.0871 192.181 60.0871C160.883 60.0871 135.511 85.4327 135.511 116.698C135.511 147.963 160.883 173.309 192.181 173.309Z" fill="black"/>
<path d="M76.3958 127.142C76.3958 127.142 67.2114 152.967 71.2933 162.142C75.3753 171.317 81.8383 180.152 81.8383 180.152C81.8383 180.152 79.4572 128.841 76.3958 127.142Z" fill="#D0CDE1"/>
<path opacity="0.1" d="M76.3958 127.142C76.3958 127.142 67.2114 152.967 71.2933 162.142C75.3753 171.317 81.8383 180.152 81.8383 180.152C81.8383 180.152 79.4572 128.841 76.3958 127.142Z" fill="black"/>
<path d="M82.8588 186.948C82.8588 186.948 82.1785 193.404 81.8383 193.744C81.4982 194.084 82.1785 194.763 81.8383 195.783C81.4982 196.802 81.158 198.161 81.8383 198.501C82.5187 198.841 78.0966 228.744 78.0966 228.744C78.0966 228.744 67.2114 243.016 71.6335 265.443L72.9942 288.21C72.9942 288.21 83.5392 288.89 83.5392 285.152C83.5392 285.152 82.8588 280.735 82.8588 278.696C82.8588 276.657 84.5596 276.657 83.5392 275.638C82.5187 274.618 82.5187 273.939 82.5187 273.939C82.5187 273.939 84.2195 272.579 83.8793 272.24C83.5392 271.9 86.9408 247.773 86.9408 247.773C86.9408 247.773 90.6825 244.036 90.6825 241.997V239.958C90.6825 239.958 92.3833 235.54 92.3833 235.201C92.3833 234.861 101.568 214.132 101.568 214.132L105.309 229.084L109.391 250.492C109.391 250.492 111.432 269.861 115.514 277.337C115.514 277.337 122.658 301.803 122.658 301.123C122.658 300.444 134.563 298.745 134.223 295.686C133.883 292.628 127.08 249.812 127.08 249.812L128.781 186.268L82.8588 186.948Z" fill="#2F2E41"/>
<path d="M73.6745 286.511C73.6745 286.511 64.4901 304.521 70.613 305.201C76.7359 305.88 79.1171 305.88 81.8384 303.162C83.3261 301.676 86.3388 299.682 88.7645 298.179C90.2017 297.304 91.3628 296.041 92.1145 294.536C92.8662 293.031 93.1781 291.345 93.0145 289.671C92.8351 288.009 92.2133 286.639 90.6826 286.511C86.6006 286.172 81.8384 282.434 81.8384 282.434L73.6745 286.511Z" fill="#2F2E41"/>
<path d="M124.358 299.764C124.358 299.764 115.174 317.774 121.297 318.453C127.42 319.133 129.801 319.133 132.522 316.414C134.01 314.928 137.023 312.934 139.448 311.432C140.886 310.556 142.047 309.293 142.798 307.788C143.55 306.284 143.862 304.598 143.698 302.924C143.519 301.261 142.897 299.891 141.367 299.764C137.285 299.424 132.522 295.686 132.522 295.686L124.358 299.764Z" fill="#2F2E41"/>
<path d="M114.652 97.6691C122.549 97.6691 128.951 91.2739 128.951 83.3849C128.951 75.496 122.549 69.1007 114.652 69.1007C106.754 69.1007 100.352 75.496 100.352 83.3849C100.352 91.2739 106.754 97.6691 114.652 97.6691Z" fill="#FFB8B8"/>
<path d="M105.459 88.0783C105.459 88.0783 95.2456 106.852 94.4286 106.852C93.6115 106.852 112.813 112.974 112.813 112.974C112.813 112.974 118.124 95.0163 118.941 93.3839L105.459 88.0783Z" fill="#FFB8B8"/>
<path d="M121.127 108.622C121.127 108.622 100.717 97.4086 98.6763 97.7484C96.6354 98.0882 74.8651 117.117 75.2052 124.933C75.5454 132.749 78.2667 145.661 78.2667 145.661C78.2667 145.661 79.2872 181.681 81.3281 182.021C83.3691 182.36 80.988 188.477 81.6683 188.477C82.3486 188.477 129.291 188.477 129.631 187.458C129.971 186.438 121.127 108.622 121.127 108.622Z" fill="#D0CDE1"/>
<path d="M132.522 189.326C132.522 189.326 138.985 209.035 133.543 208.356C128.1 207.676 125.719 191.365 125.719 191.365L132.522 189.326Z" fill="#FFB8B8"/>
<path d="M115.174 107.433C115.174 107.433 102.588 110.151 104.629 127.142C106.67 144.132 110.412 161.122 110.412 161.122L122.998 188.647L124.358 193.744L133.543 191.365L126.74 151.948C126.74 151.948 124.358 109.812 121.297 108.452C119.366 107.63 117.267 107.281 115.174 107.433Z" fill="#D0CDE1"/>
<path opacity="0.1" d="M107.52 160.613L123.168 188.477L109.985 159.116L107.52 160.613Z" fill="black"/>
<path d="M128.887 79.1789L128.935 78.0873L131.108 78.6278C131.085 78.2773 130.986 77.9362 130.818 77.6277C130.65 77.3193 130.416 77.0511 130.134 76.8414L132.45 76.7121C130.507 73.9541 128.024 71.618 125.153 69.845C122.281 68.072 119.079 66.8989 115.741 66.3965C110.732 65.6714 105.156 66.7207 101.722 70.4337C100.056 72.2347 99.0091 74.525 98.2645 76.8615C96.8932 81.1649 96.6138 86.2948 99.4732 89.7929C102.379 93.348 107.456 94.0445 112.029 94.4845C113.638 94.6393 115.325 94.7833 116.816 94.1596C116.982 92.4509 116.763 90.7268 116.175 89.1136C115.931 88.6142 115.814 88.062 115.835 87.5063C116.038 86.1471 117.853 85.8047 119.216 85.9883C120.58 86.172 122.219 86.4529 123.115 85.4099C123.732 84.6915 123.696 83.6453 123.778 82.7022C124 80.1346 128.864 79.7171 128.887 79.1789Z" fill="#2F2E41"/>
<path d="M216.591 304.808C225.792 304.808 233.251 297.357 233.251 288.165C233.251 278.973 225.792 271.521 216.591 271.521C207.389 271.521 199.93 278.973 199.93 288.165C199.93 297.357 207.389 304.808 216.591 304.808Z" fill="#B052FA"/>
<path d="M20.9229 299.002C30.1244 299.002 37.5837 291.551 37.5837 282.359C37.5837 273.167 30.1244 265.715 20.9229 265.715C11.7214 265.715 4.26208 273.167 4.26208 282.359C4.26208 291.551 11.7214 299.002 20.9229 299.002Z" fill="#B052FA"/>
<path d="M20.9229 272.295C27.5566 272.295 32.9342 266.923 32.9342 260.297C32.9342 253.67 27.5566 248.298 20.9229 248.298C14.2893 248.298 8.91162 253.67 8.91162 260.297C8.91162 266.923 14.2893 272.295 20.9229 272.295Z" fill="#B052FA"/>
<path d="M20.9229 250.233C25.6307 250.233 29.4471 246.421 29.4471 241.718C29.4471 237.015 25.6307 233.203 20.9229 233.203C16.2152 233.203 12.3988 237.015 12.3988 241.718C12.3988 246.421 16.2152 250.233 20.9229 250.233Z" fill="#B052FA"/>
</g>
<defs>
<clipPath id="clip0_19_340">
<rect width="309" height="323" fill="white"/>
</clipPath>
</defs>
</svg>
