<svg width="1920" height="548" viewBox="0 0 1920 548" fill="none" xmlns="http://www.w3.org/2000/svg">
<path d="M0 0L53.3333 10.0853C106.667 20.9317 213.333 39.9606 320 40.5314C426.667 39.9606 533.333 20.9317 640 30.4461C746.667 39.9606 853.333 81.824 960 121.785C1066.67 161.745 1173.33 203.609 1280 213.123C1386.67 222.637 1493.33 203.609 1600 162.316C1706.67 121.785 1813.33 60.8923 1866.67 30.4461L1920 0V548.031H1866.67C1813.33 548.031 1706.67 548.031 1600 548.031C1493.33 548.031 1386.67 548.031 1280 548.031C1173.33 548.031 1066.67 548.031 960 548.031C853.333 548.031 746.667 548.031 640 548.031C533.333 548.031 426.667 548.031 320 548.031C213.333 548.031 106.667 548.031 53.3333 548.031H0V0Z" fill="url(#paint0_linear_15_94)"/>
<defs>
<linearGradient id="paint0_linear_15_94" x1="124.372" y1="4.02488e-07" x2="351.111" y2="916.812" gradientUnits="userSpaceOnUse">
<stop stop-color="#BE6AFF"/>
<stop offset="1" stop-color="#DA45DD"/>
</linearGradient>
</defs>
</svg>
